<mxfile host="app.diagrams.net" modified="2021-10-04T07:05:05.557Z" agent="5.0 (X11; Linux x86_64) AppleWebKit/537.36 (KHTML, like Gecko) Chrome/94.0.4606.61 Safari/537.36" etag="K3vihPAKbpDM-R5pDCp3" version="15.4.1" type="github">
  <diagram id="AGsUiX0euYqNc1a4Q9fl" name="Page-1">
    <mxGraphModel dx="868" dy="464" grid="1" gridSize="10" guides="1" tooltips="1" connect="1" arrows="1" fold="1" page="1" pageScale="1" pageWidth="850" pageHeight="1100" math="0" shadow="0">
      <root>
        <mxCell id="0" />
        <mxCell id="1" parent="0" />
        <mxCell id="iOE5hUjKvJGz-ExjCi3M-8" style="edgeStyle=orthogonalEdgeStyle;rounded=0;orthogonalLoop=1;jettySize=auto;html=1;entryX=0.5;entryY=1;entryDx=0;entryDy=0;fontSize=17;" edge="1" parent="1" source="iOE5hUjKvJGz-ExjCi3M-1" target="iOE5hUjKvJGz-ExjCi3M-2">
          <mxGeometry relative="1" as="geometry" />
        </mxCell>
        <mxCell id="iOE5hUjKvJGz-ExjCi3M-9" value="StartFlowRequest" style="edgeLabel;html=1;align=center;verticalAlign=middle;resizable=0;points=[];fontSize=17;" vertex="1" connectable="0" parent="iOE5hUjKvJGz-ExjCi3M-8">
          <mxGeometry x="-0.1489" y="2" relative="1" as="geometry">
            <mxPoint x="-15" as="offset" />
          </mxGeometry>
        </mxCell>
        <mxCell id="iOE5hUjKvJGz-ExjCi3M-1" value="&lt;font style=&quot;font-size: 17px&quot;&gt;Intent Library&lt;/font&gt;" style="ellipse;whiteSpace=wrap;html=1;" vertex="1" parent="1">
          <mxGeometry x="140" y="180" width="120" height="80" as="geometry" />
        </mxCell>
        <mxCell id="iOE5hUjKvJGz-ExjCi3M-6" style="edgeStyle=orthogonalEdgeStyle;rounded=0;orthogonalLoop=1;jettySize=auto;html=1;fontSize=17;" edge="1" parent="1" source="iOE5hUjKvJGz-ExjCi3M-2" target="iOE5hUjKvJGz-ExjCi3M-1">
          <mxGeometry relative="1" as="geometry" />
        </mxCell>
        <mxCell id="iOE5hUjKvJGz-ExjCi3M-7" value="Intent" style="edgeLabel;html=1;align=center;verticalAlign=middle;resizable=0;points=[];fontSize=17;" vertex="1" connectable="0" parent="iOE5hUjKvJGz-ExjCi3M-6">
          <mxGeometry x="-0.0889" relative="1" as="geometry">
            <mxPoint as="offset" />
          </mxGeometry>
        </mxCell>
        <mxCell id="iOE5hUjKvJGz-ExjCi3M-2" value="SnipsActionController" style="ellipse;whiteSpace=wrap;html=1;fontSize=17;" vertex="1" parent="1">
          <mxGeometry x="310" y="70" width="230" height="80" as="geometry" />
        </mxCell>
        <mxCell id="iOE5hUjKvJGz-ExjCi3M-4" style="edgeStyle=orthogonalEdgeStyle;rounded=0;orthogonalLoop=1;jettySize=auto;html=1;entryX=1;entryY=0.5;entryDx=0;entryDy=0;fontSize=17;" edge="1" parent="1" source="iOE5hUjKvJGz-ExjCi3M-3" target="iOE5hUjKvJGz-ExjCi3M-2">
          <mxGeometry relative="1" as="geometry">
            <Array as="points">
              <mxPoint x="740" y="110" />
            </Array>
          </mxGeometry>
        </mxCell>
        <mxCell id="iOE5hUjKvJGz-ExjCi3M-5" value="Voice message" style="edgeLabel;html=1;align=center;verticalAlign=middle;resizable=0;points=[];fontSize=17;" vertex="1" connectable="0" parent="iOE5hUjKvJGz-ExjCi3M-4">
          <mxGeometry x="0.2667" relative="1" as="geometry">
            <mxPoint as="offset" />
          </mxGeometry>
        </mxCell>
        <mxCell id="iOE5hUjKvJGz-ExjCi3M-3" value="Voice message" style="ellipse;whiteSpace=wrap;html=1;fontSize=17;" vertex="1" parent="1">
          <mxGeometry x="680" y="180" width="120" height="80" as="geometry" />
        </mxCell>
      </root>
    </mxGraphModel>
  </diagram>
</mxfile>
